<svg xmlns="http://www.w3.org/2000/svg" xmlns:xlink="http://www.w3.org/1999/xlink" width="500" zoomAndPan="magnify" viewBox="0 0 375 374.999991" height="500" preserveAspectRatio="xMidYMid meet" version="1.0"><defs><clipPath id="a5d6e8ae00"><path d="M 241 140 L 300 140 L 300 235 L 241 235 Z M 241 140 " clip-rule="nonzero"/></clipPath><clipPath id="dca0ce6d22"><path d="M 134 134.625 L 241 134.625 L 241 240.375 L 134 240.375 Z M 134 134.625 " clip-rule="nonzero"/></clipPath></defs><rect x="-37.5" width="450" fill="#ffffff" y="-37.499999" height="449.999989" fill-opacity="1"/><rect x="-37.5" width="450" fill="#000000" y="-37.499999" height="449.999989" fill-opacity="1"/><path fill="#ffffff" d="M 133.664062 234.964844 C 122.5 222.3125 115.726562 205.695312 115.726562 187.503906 C 115.726562 169.304688 122.503906 152.6875 133.667969 140.035156 C 129.089844 141.886719 124.660156 143.964844 120.390625 146.253906 C 101.554688 156.359375 85.886719 170.589844 75 187.5 C 85.886719 204.414062 101.554688 218.644531 120.390625 228.75 C 124.660156 231.039062 129.089844 233.117188 133.664062 234.964844 Z M 133.664062 234.964844 " fill-opacity="1" fill-rule="nonzero"/><g clip-path="url(#a5d6e8ae00)"><path fill="#ffffff" d="M 241.335938 140.035156 C 252.5 152.6875 259.277344 169.304688 259.277344 187.503906 C 259.277344 205.695312 252.5 222.3125 241.335938 234.964844 C 245.914062 233.117188 250.34375 231.039062 254.609375 228.75 C 273.445312 218.644531 289.113281 204.414062 300.003906 187.5 C 289.113281 170.589844 273.445312 156.359375 254.609375 146.253906 C 250.34375 143.964844 245.910156 141.886719 241.335938 140.035156 Z M 241.335938 140.035156 " fill-opacity="1" fill-rule="nonzero"/></g><g clip-path="url(#dca0ce6d22)"><path fill="#ffffff" d="M 206.539062 173.960938 C 210.039062 173.960938 212.878906 176.800781 212.878906 180.304688 C 212.878906 183.808594 210.039062 186.648438 206.539062 186.648438 C 203.03125 186.648438 200.191406 183.808594 200.191406 180.304688 C 200.191406 176.800781 203.03125 173.960938 206.539062 173.960938 Z M 187.5 134.675781 C 197.925781 134.675781 207.648438 137.695312 215.835938 142.910156 C 211.144531 144.734375 207.820312 149.289062 207.820312 154.621094 C 207.820312 161.558594 213.445312 167.183594 220.382812 167.183594 C 225.714844 167.183594 230.269531 163.859375 232.09375 159.171875 C 237.308594 167.359375 240.328125 177.078125 240.328125 187.503906 C 240.328125 216.675781 216.671875 240.332031 187.5 240.332031 C 158.328125 240.332031 134.671875 216.675781 134.671875 187.503906 C 134.671875 158.332031 158.328125 134.675781 187.5 134.675781 Z M 187.5 134.675781 " fill-opacity="1" fill-rule="evenodd"/></g></svg>